<svg width="32" height="32" fill="none" xmlns="http://www.w3.org/2000/svg"><rect x="1.5" y="1.5" width="29" height="29" rx="3.5" stroke="#000" stroke-width="3"/><path d="M16.119 19.35h-3.575L11.862 21h-1.826l3.432-7.7h1.76L18.67 21H16.8l-.682-1.65zm-.561-1.353l-1.221-2.948-1.221 2.948h2.442zm3.79-2.915h1.717V21h-1.716v-5.918zm.859-.825c-.316 0-.572-.092-.77-.275a.892.892 0 01-.297-.682c0-.271.099-.499.297-.682.198-.183.454-.275.77-.275.315 0 .572.088.77.264a.846.846 0 01.297.66.952.952 0 01-.297.715c-.198.183-.455.275-.77.275z" fill="#000"/></svg>