<svg width="32" height="32" fill="none" xmlns="http://www.w3.org/2000/svg"><rect x="1.5" y="1.5" width="29" height="29" rx="3.5" stroke="#000" stroke-width="3"/><path d="M9.082 21.132c-.785 0-1.496-.169-2.134-.506a3.921 3.921 0 01-1.496-1.419c-.36-.609-.54-1.294-.54-2.057 0-.763.18-1.445.54-2.046a3.814 3.814 0 011.496-1.419c.638-.345 1.353-.517 2.145-.517.667 0 1.269.117 1.804.352.543.235.997.572 1.364 1.012l-1.144 1.056c-.52-.601-1.166-.902-1.936-.902-.477 0-.902.106-1.276.319a2.228 2.228 0 00-.88.869c-.205.374-.308.8-.308 1.276 0 .477.103.902.308 1.276.213.374.506.667.88.88.374.205.8.308 1.276.308.77 0 1.415-.304 1.936-.913l1.144 1.056a3.567 3.567 0 01-1.364 1.023 4.527 4.527 0 01-1.815.352zm6.848 0c-.609 0-1.2-.08-1.771-.242-.565-.169-1.02-.385-1.364-.649l.605-1.342c.33.242.722.436 1.177.583.454.147.91.22 1.364.22.506 0 .88-.073 1.122-.22.242-.154.363-.356.363-.605a.552.552 0 00-.22-.451 1.507 1.507 0 00-.55-.297c-.22-.073-.52-.154-.902-.242a12.543 12.543 0 01-1.441-.418 2.382 2.382 0 01-.968-.671c-.264-.308-.396-.719-.396-1.232 0-.447.12-.85.363-1.21.242-.367.605-.656 1.089-.869.491-.213 1.089-.319 1.793-.319.491 0 .972.059 1.44.176.47.117.88.286 1.233.506l-.55 1.353c-.712-.403-1.423-.605-2.134-.605-.499 0-.87.08-1.111.242-.235.161-.352.374-.352.638s.135.462.407.594c.278.125.7.25 1.265.374.587.14 1.067.279 1.44.418.375.14.694.36.958.66.271.3.407.708.407 1.221 0 .44-.125.843-.374 1.21-.242.36-.609.645-1.1.858-.491.213-1.09.319-1.793.319zm7.015 0c-.61 0-1.2-.08-1.771-.242-.565-.169-1.02-.385-1.364-.649l.605-1.342c.33.242.722.436 1.177.583.454.147.909.22 1.364.22.506 0 .88-.073 1.122-.22.242-.154.363-.356.363-.605a.552.552 0 00-.22-.451 1.507 1.507 0 00-.55-.297c-.22-.073-.521-.154-.902-.242a12.543 12.543 0 01-1.441-.418 2.382 2.382 0 01-.968-.671c-.264-.308-.396-.719-.396-1.232 0-.447.12-.85.363-1.21.241-.367.604-.656 1.088-.869.492-.213 1.09-.319 1.794-.319.49 0 .971.059 1.44.176.47.117.88.286 1.232.506l-.55 1.353c-.71-.403-1.422-.605-2.133-.605-.5 0-.87.08-1.111.242-.235.161-.352.374-.352.638s.135.462.407.594c.278.125.7.25 1.265.374.586.14 1.067.279 1.44.418.374.14.694.36.957.66.272.3.408.708.408 1.221 0 .44-.125.843-.375 1.21-.241.36-.608.645-1.1.858-.49.213-1.088.319-1.792.319z" fill="#000"/></svg>