<svg width="22" height="32" fill="none" xmlns="http://www.w3.org/2000/svg"><path d="M6.203 31.405a6.155 6.155 0 01-3.926-10.932 6.138 6.138 0 010-9.542A6.152 6.152 0 016.203 0h9.594a6.153 6.153 0 013.926 10.93 6.154 6.154 0 01-3.926 10.932 6.194 6.194 0 01-3.4-1.011v4.396a6.183 6.183 0 01-6.194 6.157zm-.035-9.54a3.38 3.38 0 103.434 3.38v-3.38H6.167h.001zm9.63-9.543a3.381 3.381 0 103.399 3.38 3.394 3.394 0 00-3.4-3.38h.002zm-9.594 0a3.38 3.38 0 10-.036 6.762h3.434v-6.762H6.204zm6.194-9.542v6.763h3.398a3.384 3.384 0 003.396-3.237v.683-.829a3.395 3.395 0 00-3.395-3.38h-3.4zm-6.197 0a3.38 3.38 0 000 6.761h3.401V2.78h-3.4z" fill="#000"/></svg>