<svg width="33" height="32" fill="none" xmlns="http://www.w3.org/2000/svg"><g clip-path="url(#clip0)"><path d="M27.74 7.8h2.994v3.34c-.115 0-.327-.012-.637-.035a11.93 11.93 0 00-.878-.034h-1.48v6.401c0 1.538.505 2.306 1.515 2.306a3.35 3.35 0 001.927-.584v3.441c-.849.46-1.87.689-3.063.689-1.675 0-2.834-.597-3.476-1.79-.482-.895-.723-2.306-.723-4.234v-6.16h.034v-.07l-.516-.034c-.298 0-.688.035-1.17.103V7.801h1.686V6.459c0-.643-.034-1.16-.103-1.55h3.993c-.069.437-.103.93-.103 1.48v1.412zM16.728 23.084c.046-.459.069-1.24.069-2.34V10.037c0-1.078-.023-1.824-.069-2.237h3.89c-.046.436-.07 1.159-.07 2.168v10.567c0 1.17.024 2.02.07 2.547h-3.89zM8.088 7.629c-1.56 0-2.903.517-4.027 1.55-1.17 1.1-1.756 2.478-1.756 4.13 0 1.101.323 2.132.965 3.096.574.894 1.227 1.469 1.962 1.721v.07c-.735.32-1.102 1.123-1.102 2.408 0 .987.389 1.722 1.169 2.204v.069c-2.134.711-3.2 2.03-3.2 3.957 0 1.676.712 2.904 2.135 3.684 1.124.62 2.557.929 4.301.929 4.245 0 6.368-1.78 6.368-5.336 0-2.226-1.641-3.591-4.923-4.096-.757-.115-1.33-.39-1.72-.825-.298-.299-.447-.597-.447-.895 0-.849.459-1.342 1.376-1.48 1.4-.206 2.541-.856 3.425-1.946.883-1.09 1.326-2.368 1.326-3.837 0-.459-.093-.952-.276-1.48a13.167 13.167 0 001.376-.378V7.63c-1.446.551-2.718.826-3.82.826a6.207 6.207 0 00-3.132-.826zm.138 3.165c.688 0 1.228.265 1.618.793.321.482.482 1.056.482 1.722 0 1.606-.7 2.409-2.1 2.409-1.446 0-2.169-.793-2.169-2.377 0-1.697.723-2.547 2.169-2.547zm.24 14.01c1.927 0 2.892.586 2.892 1.756 0 1.24-.883 1.858-2.65 1.858-2.02 0-3.029-.598-3.029-1.79 0-1.217.928-1.824 2.787-1.824zm12.608-22.24c0 1.416-1.07 2.564-2.392 2.564-1.321 0-2.392-1.148-2.392-2.564C16.29 1.148 17.36 0 18.682 0c1.321 0 2.392 1.148 2.392 2.564z" fill="#9C9C9C"/></g><defs><clipPath id="clip0"><path fill="#fff" transform="translate(.917)" d="M0 0h31.447v31.447H0z"/></clipPath></defs></svg>