<svg width="30" height="30" fill="none" xmlns="http://www.w3.org/2000/svg"><g clip-path="url(#clip0)"><path d="M7.42 5.867c-.42 0-.844.098-1.266.278a5.636 5.636 0 00-1.259.756c-.44.344-.845.727-1.212 1.146a13.13 13.13 0 00-1.11 1.455 23.478 23.478 0 00-.974 1.65h-.002v.002c-.298.591-.56 1.2-.787 1.819a15.47 15.47 0 00-.548 1.87 10.833 10.833 0 00-.25 1.832.644.644 0 00-.012.114v.118c0 .327.048.663.094.97v.003l.001.003c.085.327.219.63.387.896.174.263.403.484.672.647.271.173.592.259.97.259.329 0 .67-.075 1.021-.231.349-.157.696-.36 1.042-.599.335-.24.67-.515.993-.825.259-.24.495-.49.729-.738l-.245.76c-.106.367-.225.72-.321 1.067-.107.342-.19.65-.262.922-.071.27-.12.453-.12.57v.269c0 .301.031.514.13.648a.498.498 0 00.417.19.543.543 0 00.33-.12c.102-.074.188-.17.274-.28v-.002l.003-.001c.071-.109.144-.225.205-.348.063-.126.098-.237.134-.336v-.001l.083-.3.18-.619.237-.827c.095-.309.177-.619.284-.934l.28-.938c.09-.305.176-.58.255-.826.078-.25.145-.452.2-.616.024-.081.05-.145.067-.193l.018-.04.05.023.022-.06c.095-.273.189-.534.284-.783.095-.25.19-.5.262-.746a4.703 4.703 0 00.275-1.612.796.796 0 00-.062-.319.55.55 0 00-.155-.225.623.623 0 00-.218-.125.778.778 0 00-.71.121c-.161.108-.281.287-.371.528v.001l-.688 2.205a4.895 4.895 0 01-.396.641v.002a11.76 11.76 0 01-2.137 2.29 4.41 4.41 0 01-.75.505 1.33 1.33 0 01-.625.182.6.6 0 01-.39-.129.797.797 0 01-.255-.343 1.978 1.978 0 01-.128-.484 3.98 3.98 0 01-.035-.528c0-.516.083-1.092.248-1.742.165-.65.39-1.3.674-1.974a17.65 17.65 0 01.982-1.964c.366-.639.756-1.206 1.158-1.702.4-.495.8-.883 1.212-1.188.409-.305.775-.452 1.128-.452a1.1 1.1 0 01.62.181c.19.123.363.329.526.62v-.001c.167.323.336.575.481.757.15.188.324.284.51.284a.637.637 0 00.52-.26c.144-.172.213-.409.213-.695 0-.12-.013-.25-.038-.384a1.087 1.087 0 00-.175-.417c-.393-.588-.814-1.009-1.262-1.28h-.003a2.77 2.77 0 00-1.406-.397h.001zm13.701 1.07a1.003 1.003 0 00-.512.15h-.002c-.188.132-.327.32-.398.538l-2.361 5.947-.522 1.307c-.191.475-.369.95-.559 1.435-.087.225-.16.455-.22.689a6.2 6.2 0 01-.32.268c-.26.2-.505.351-.737.456h-.002a1.307 1.307 0 01-.58.162c-.102 0-.17-.025-.214-.066-.044-.042-.07-.105-.07-.208 0-.231.035-.487.105-.769.071-.275.165-.564.271-.854.102-.292.216-.58.342-.862l.345-.805c.108-.25.192-.477.263-.667.064-.15.101-.31.111-.472a.887.887 0 00-.178-.546.593.593 0 00-.488-.238.582.582 0 00-.473.224 1.89 1.89 0 00-.317.525c-.1.218-.184.442-.251.671-.07.238-.164.46-.259.67a12.93 12.93 0 01-.52 1.032 8.302 8.302 0 01-.706 1.061 4.29 4.29 0 01-.844.817c-.27.206-.599.318-.938.322-.103 0-.172-.038-.208-.11a.59.59 0 01-.065-.282 3.44 3.44 0 01.14-.803c.082-.278.176-.554.282-.825a9.64 9.64 0 01.354-.782c.131-.25.25-.488.367-.7l.31-.588a2.82 2.82 0 00.17-.413v-.004a.742.742 0 00.027-.18.522.522 0 00-.068-.268v-.002h-.001a.658.658 0 00-.419-.298.811.811 0 00-.735.129c-.165.113-.288.29-.399.532-.361.743-.69 1.5-.987 2.271a24.06 24.06 0 00-.523 1.537c-.09.286-.158.578-.203.875l-.025.29v.002c0 .267.036.5.112.688v.002c.085.184.185.332.312.446.13.114.283.195.45.239.165.05.337.074.512.074a3.09 3.09 0 001.076-.194 3.36 3.36 0 00.893-.495c.26-.2.496-.43.704-.685.15-.175.262-.356.374-.534-.05.275-.097.546-.097.768 0 .412.079.712.253.896a.869.869 0 00.653.268c.26 0 .549-.072.868-.213.316-.141.637-.327.962-.557.082-.057.159-.117.238-.177l.006.045c.034.157.098.305.188.438l.002.002c.1.124.213.225.364.3.176.082.368.12.562.114.34-.005.674-.08.984-.219h.003a5.617 5.617 0 001.006-.6c.355-.27.694-.56 1.015-.871l.012-.011c-.057.132-.112.265-.172.398-.274.605-.553 1.215-.843 1.84-.291.624-.582 1.242-.855 1.86l-.001.003-.001.003a4.902 4.902 0 01-.13.347c-.045.115-.106.235-.144.372v.002c-.046.125-.094.247-.119.382-.037.138-.05.271-.05.394 0 .26.074.459.215.559.147.099.32.15.498.143a.936.936 0 00.418-.1h.002c.125-.072.236-.165.329-.276.095-.112.175-.24.247-.385.072-.148.136-.3.192-.456l.003-.005v-.005c.01-.046.046-.151.105-.305l.203-.545.237-.64.249-.652.212-.544c.06-.155.096-.263.119-.319v-.001c.024-.048.06-.119.106-.236l.166-.392.202-.462.215-.475.177-.428.129-.282.001-.002c.107-.212.235-.447.378-.707v-.001c.154-.259.319-.507.495-.765v-.002c.19-.25.377-.496.579-.73a6.5 6.5 0 01.625-.623c.216-.175.432-.328.65-.431.194-.1.407-.155.625-.16.107 0 .178.022.222.048a.168.168 0 01.052.129c0 .1-.053.259-.18.441v.002c-.13.2-.282.412-.47.648-.203.238-.405.486-.63.747-.224.262-.44.523-.642.785a7.74 7.74 0 00-.515.753v.002a1.897 1.897 0 00-.256.662v.009a.237.237 0 01-.005.027c-.004.013-.008.018-.008.044v.071c0 .321.115.581.343.758.229.19.551.275.95.275a2.89 2.89 0 001.212-.255 5.88 5.88 0 001.15-.695h.002c.393-.295.8-.646 1.238-1.054a58.23 58.23 0 011.48-1.35c.146-.115.26-.267.328-.44.073-.173.111-.344.111-.513a.794.794 0 00-.102-.405.347.347 0 00-.31-.184.461.461 0 00-.206.053 1.844 1.844 0 00-.212.127c-.13.04.021.078.037.135-.672.6-1.255 1.108-1.716 1.507-.475.415-.873.735-1.182.985a7.371 7.371 0 01-.718.512c-.165.1-.291.147-.361.147-.098 0-.165-.025-.195-.054a.176.176 0 01-.054-.135.278.278 0 01.044-.094 2.08 2.08 0 01.146-.19l.498-.581c.202-.226.405-.476.63-.75.225-.275.437-.559.627-.853.2-.287.357-.583.488-.874.126-.292.195-.57.195-.833a1.046 1.046 0 00-.133-.533 1.15 1.15 0 00-.346-.374 1.55 1.55 0 00-.469-.227h-.001a1.946 1.946 0 00-1.304.091c-.264.11-.514.25-.747.415a7.21 7.21 0 00-.707.563c-.162.153-.32.31-.475.473l.046-.22c.018-.092.03-.177.042-.26.012-.085.016-.146.016-.187a.66.66 0 00-.157-.466v-.001h-.003c-.108-.113-.277-.162-.5-.162-.152 0-.3.088-.425.238a2.7 2.7 0 00-.329.522c-.096.195-.18.396-.252.6l-.166.473v.001c-.058.199-.122.402-.188.607a.423.423 0 00-.051.017.412.412 0 00-.17.111l.004-.003c-.148.142-.314.308-.499.486a17.56 17.56 0 01-.58.532c-.203.166-.407.344-.613.509a8.01 8.01 0 01-.588.431 4.028 4.028 0 01-.524.301.97.97 0 01-.386.11c-.075 0-.107-.017-.125-.052h-.002a.389.389 0 01-.04-.194c0-.141.025-.303.08-.487a5.38 5.38 0 01.163-.482l.035-.037.468-1.19c.177-.456.367-.932.58-1.44l.642-1.567c.212-.534.427-1.05.629-1.543l.594-1.377c.177-.42.332-.774.462-1.06l-.001.002c.074-.146.121-.284.169-.4v-.002c.042-.12.066-.245.068-.372 0-.245-.076-.437-.225-.553a.75.75 0 00-.48-.167z" fill="#000"/></g><defs><clipPath id="clip0"><path fill="#fff" d="M0 0h30v30H0z"/></clipPath></defs></svg>