<svg width="32" height="32" fill="none" xmlns="http://www.w3.org/2000/svg"><rect x="1.5" y="1.5" width="29" height="29" rx="3.5" stroke="#000" stroke-width="3"/><path d="M10.862 13.7V20H9.404v-2.583H6.542V20H5.084v-6.3h1.458v2.484h2.862V13.7h1.458zm4.514 6.066a1.5 1.5 0 01-.512.234 2.667 2.667 0 01-.63.072c-.576 0-1.024-.147-1.341-.441-.313-.294-.469-.726-.469-1.296v-1.989h-.746v-1.08h.746v-1.179h1.405v1.179h1.205v1.08h-1.206v1.971c0 .204.052.363.154.477.107.108.258.162.45.162.221 0 .41-.06.566-.18l.379.99zm6.99-4.68c.606 0 1.086.18 1.44.54.36.354.54.888.54 1.602V20h-1.404v-2.556c0-.384-.081-.669-.243-.855-.156-.192-.381-.288-.675-.288-.33 0-.591.108-.783.324-.192.21-.288.525-.288.945V20h-1.404v-2.556c0-.762-.306-1.143-.918-1.143-.324 0-.582.108-.774.324-.192.21-.288.525-.288.945V20h-1.404v-4.842h1.34v.558c.18-.204.4-.36.658-.468a2.26 2.26 0 01.864-.162c.342 0 .65.069.927.207.276.132.498.327.666.585.198-.252.447-.447.747-.585.306-.138.639-.207.999-.207zm3.238-1.764h1.404V20h-1.404v-6.678z" fill="#000"/></svg>