<svg width="32" height="32" fill="none" xmlns="http://www.w3.org/2000/svg"><rect x="1.5" y="1.5" width="29" height="29" rx="3.5" stroke="#000" stroke-width="3"/><path d="M12.35 21.132a3.58 3.58 0 01-1.442-.286 2.8 2.8 0 01-1.067-.836l.99-1.188c.418.565.895.847 1.43.847.726 0 1.09-.425 1.09-1.276V14.73h-2.707V13.3h4.477v4.994c0 .946-.235 1.657-.704 2.134-.47.47-1.159.704-2.068.704zm7.061 0c-.608 0-1.199-.08-1.77-.242-.565-.169-1.02-.385-1.365-.649l.605-1.342c.33.242.723.436 1.177.583.455.147.91.22 1.364.22.506 0 .88-.073 1.122-.22.242-.154.363-.356.363-.605a.552.552 0 00-.22-.451 1.507 1.507 0 00-.55-.297c-.22-.073-.52-.154-.902-.242a12.543 12.543 0 01-1.44-.418 2.382 2.382 0 01-.969-.671c-.264-.308-.396-.719-.396-1.232 0-.447.121-.85.363-1.21.242-.367.605-.656 1.09-.869.49-.213 1.088-.319 1.792-.319.492 0 .972.059 1.441.176.47.117.88.286 1.232.506l-.55 1.353c-.711-.403-1.422-.605-2.134-.605-.498 0-.869.08-1.11.242-.235.161-.353.374-.353.638s.136.462.407.594c.279.125.7.25 1.265.374.587.14 1.067.279 1.441.418.374.14.693.36.957.66.272.3.407.708.407 1.221 0 .44-.124.843-.374 1.21-.242.36-.608.645-1.1.858-.491.213-1.089.319-1.793.319z" fill="#000"/></svg>