<svg width="26" height="27" fill="none" xmlns="http://www.w3.org/2000/svg"><g clip-path="url(#clip0)"><path d="M12.654 6.08c1.97 0 3.826.873 5.186 2.238v.005c0-.656.441-1.152 1.05-1.152h.156c.962 0 1.154.907 1.154 1.193l.004 10.188c-.067.668.69 1.013 1.11.584 1.633-1.68 3.59-8.643-1.017-12.674-4.296-3.764-10.062-3.142-13.128-1.03-3.258 2.252-5.34 7.224-3.318 11.898 2.21 5.095 8.526 6.615 12.285 5.1 1.902-.77 2.78 1.8.802 2.64-2.981 1.272-11.289 1.142-15.169-5.577C-.852 14.955-.713 6.97 6.242 2.833 11.558-.332 18.572.546 22.8 4.96c4.418 4.62 4.163 13.263-.151 16.623-1.954 1.528-4.855.042-4.834-2.185l-.022-.725c-1.36 1.347-3.17 2.137-5.14 2.137-3.897 0-7.328-3.431-7.328-7.324 0-3.935 3.43-7.403 7.328-7.403V6.08zm4.901 7.123c-.147-2.852-2.264-4.57-4.821-4.57h-.097c-2.948 0-4.586 2.323-4.586 4.956 0 2.952 1.978 4.816 4.574 4.816 2.897 0 4.799-2.12 4.938-4.628l-.008-.574z" fill="#9C9C9C"/></g><defs><clipPath id="clip0"><path fill="#fff" transform="translate(.198 .419)" d="M0 0h25.802v25.802H0z"/></clipPath></defs></svg>