<svg width="32" height="32" fill="none" xmlns="http://www.w3.org/2000/svg"><rect x="1.5" y="1.5" width="29" height="29" rx="3.5" stroke="#000" stroke-width="3"/><path d="M13.796 13.3c.682 0 1.272.114 1.77.341.507.227.896.55 1.167.968.271.418.407.913.407 1.485 0 .565-.136 1.06-.407 1.485-.271.418-.66.74-1.166.968-.499.22-1.09.33-1.771.33h-1.551V21h-1.782v-7.7h3.333zm-.1 4.125c.536 0 .943-.114 1.222-.341.279-.235.418-.565.418-.99 0-.433-.14-.763-.418-.99-.279-.235-.686-.352-1.221-.352h-1.452v2.673h1.452zm6.693 3.663c-.49 0-.971-.059-1.44-.176-.47-.125-.844-.279-1.123-.462l.572-1.232c.264.169.583.308.957.418.374.103.741.154 1.1.154.726 0 1.09-.18 1.09-.539 0-.169-.1-.29-.298-.363-.198-.073-.502-.136-.913-.187a8.81 8.81 0 01-1.199-.253 1.899 1.899 0 01-.825-.506c-.227-.242-.34-.587-.34-1.034 0-.374.106-.704.318-.99.22-.293.536-.52.946-.682.418-.161.91-.242 1.474-.242.418 0 .833.048 1.243.143.418.088.763.213 1.034.374l-.572 1.221a3.415 3.415 0 00-1.705-.44c-.366 0-.641.051-.825.154-.183.103-.275.235-.275.396 0 .183.1.312.297.385.198.073.514.143.946.209.484.08.88.169 1.188.264.308.088.576.253.803.495.228.242.341.58.341 1.012 0 .367-.11.693-.33.979-.22.286-.542.51-.968.671-.418.154-.916.231-1.496.231z" fill="#000"/></svg>