<svg width="36" height="32" fill="none" xmlns="http://www.w3.org/2000/svg"><path d="M17.562 19.017a3.346 3.346 0 003.345-3.348 3.346 3.346 0 00-3.345-3.347 3.346 3.346 0 00-3.344 3.348 3.346 3.346 0 003.344 3.347z" fill="#61DAFB"/><path d="M35.903 16.004c0-2.38-2.979-4.637-7.545-6.036 1.053-4.658.585-8.364-1.479-9.55-.475-.279-1.031-.41-1.639-.41V1.64c.337 0 .608.066.834.19.996.571 1.427 2.747 1.09 5.545-.08.688-.211 1.413-.372 2.153a35.44 35.44 0 00-4.647-.798A35.735 35.735 0 0019.1 5.068c2.386-2.219 4.625-3.435 6.147-3.435V0c-2.012 0-4.646 1.436-7.31 3.926C15.273 1.45 12.638.029 10.626.029v1.634c1.515 0 3.761 1.208 6.147 3.413a34.591 34.591 0 00-3.022 3.655c-1.654.175-3.22.446-4.655.805a22.114 22.114 0 01-.38-2.124c-.344-2.798.08-4.973 1.068-5.552.22-.131.505-.19.842-.19V.037c-.615 0-1.171.131-1.654.41-2.056 1.186-2.517 4.885-1.456 9.529C2.964 11.382 0 13.63 0 16.004c0 2.38 2.978 4.636 7.545 6.035-1.054 4.658-.585 8.364 1.478 9.55.476.28 1.032.411 1.647.411 2.012 0 4.647-1.436 7.31-3.926 2.664 2.476 5.299 3.897 7.311 3.897.615 0 1.171-.132 1.654-.41 2.057-1.187 2.518-4.886 1.457-9.53 4.537-1.398 7.5-3.654 7.5-6.027zm-9.528-4.886c-.271.945-.608 1.92-.988 2.893a39.65 39.65 0 00-2.013-3.472c1.04.155 2.042.345 3 .58zm-3.352 7.8a39.02 39.02 0 01-1.764 2.799 38.012 38.012 0 01-6.6.007 40.369 40.369 0 01-1.772-2.783 38.171 38.171 0 01-1.522-2.915 39.019 39.019 0 013.278-5.72 38.053 38.053 0 016.601-.008c.608.872 1.2 1.802 1.771 2.783.557.96 1.062 1.934 1.523 2.915a41.001 41.001 0 01-1.515 2.923zm2.364-.951a31.7 31.7 0 011.01 2.915c-.96.234-1.97.432-3.016.586.359-.564.718-1.143 1.054-1.736a41.6 41.6 0 00.952-1.765zm-7.421 7.815a30.193 30.193 0 01-2.035-2.344c.66.03 1.332.051 2.013.051.688 0 1.369-.015 2.034-.051a28.649 28.649 0 01-2.012 2.344zm-5.445-4.314a32.982 32.982 0 01-3-.579c.27-.945.607-1.919.988-2.893.3.586.614 1.172.958 1.758a48.33 48.33 0 001.054 1.714zM17.93 6.226c.68.703 1.362 1.487 2.035 2.343a45.259 45.259 0 00-2.013-.05c-.688 0-1.368.014-2.034.05a28.57 28.57 0 012.012-2.343zm-5.415 4.314a40.423 40.423 0 00-2.005 3.493 31.392 31.392 0 01-1.01-2.915 35.533 35.533 0 013.015-.578zm-6.623 9.17c-2.59-1.106-4.266-2.556-4.266-3.706S3.3 13.396 5.89 12.297a22.52 22.52 0 012.027-.74 35.11 35.11 0 001.647 4.461 34.7 34.7 0 00-1.625 4.439 22.23 22.23 0 01-2.049-.747zm3.937 10.466c-.995-.571-1.427-2.746-1.09-5.544.08-.689.212-1.414.373-2.154 1.434.352 3 .623 4.647.799a35.726 35.726 0 003.044 3.662c-2.385 2.22-4.625 3.435-6.147 3.435-.33-.007-.607-.073-.827-.198zm17.359-5.58c.344 2.797-.08 4.972-1.069 5.55-.22.133-.505.191-.841.191-1.515 0-3.762-1.208-6.148-3.413a34.57 34.57 0 003.023-3.655 34.147 34.147 0 004.654-.805c.168.74.3 1.45.38 2.131zm2.817-4.886c-.63.27-1.317.512-2.027.74a35.194 35.194 0 00-1.646-4.461 34.693 34.693 0 001.624-4.439 23.18 23.18 0 012.057.747c2.59 1.106 4.266 2.557 4.266 3.707-.007 1.15-1.683 2.607-4.274 3.706z" fill="#61DAFB"/></svg>