<svg width="30" height="22" fill="none" xmlns="http://www.w3.org/2000/svg"><g clip-path="url(#clip0)"><path d="M25.816 12.644a6.318 6.318 0 00-2.717.617c-.28-.542-.558-1.024-.608-1.377-.055-.413-.12-.665-.055-1.158.066-.493.362-1.195.357-1.248-.006-.054-.066-.306-.669-.311-.602-.005-1.122.113-1.183.268-.06.155-.175.509-.252.873-.104.536-1.204 2.449-1.834 3.45-.203-.39-.378-.733-.416-1.006-.055-.413-.12-.665-.055-1.158.066-.493.361-1.195.356-1.248-.006-.054-.066-.306-.668-.311-.603-.005-1.123.113-1.183.268-.06.155-.126.52-.252.873-.126.354-1.588 3.547-1.972 4.372-.197.424-.366.761-.487.992 0 0-.006.016-.022.043a14.09 14.09 0 01-.164.305v.005c-.082.145-.17.279-.214.279-.033 0-.093-.386.011-.911.22-1.11.74-2.834.734-2.893 0-.032.099-.332-.34-.488-.427-.155-.58.102-.618.102-.039 0-.066.091-.066.091s.476-1.94-.91-1.94c-.864 0-2.058.927-2.65 1.763-.372.198-1.166.622-2.015 1.077-.323.177-.657.354-.97.52-.021-.021-.043-.048-.065-.07-1.676-1.752-4.776-2.99-4.644-5.342.05-.857.35-3.107 5.953-5.84 4.61-2.224 8.28-1.607 8.915-.241.91 1.95-1.966 5.572-6.73 6.097-1.818.199-2.771-.487-3.012-.744-.252-.268-.29-.284-.384-.23-.153.08-.054.32 0 .46.143.364.729 1.007 1.72 1.323.876.28 3.007.434 5.586-.54 2.886-1.094 5.142-4.132 4.48-6.677C18.11.107 13.729-.745 9.583.696c-2.464.857-5.137 2.208-7.059 3.965C.24 6.75-.12 8.567.027 9.328c.531 2.7 4.337 4.458 5.86 5.76-.077.043-.148.08-.208.112-.762.37-3.664 1.854-4.387 3.424-.822 1.779.131 3.054.761 3.226 1.955.53 3.965-.424 5.044-2 1.079-1.574.947-3.621.449-4.559a.112.112 0 00-.022-.032c.197-.112.4-.23.597-.343a29.28 29.28 0 011.1-.605c-.185.498-.322 1.093-.388 1.95-.082 1.007.34 2.315.893 2.83.246.224.536.23.723.23.646 0 .936-.526 1.26-1.147.393-.761.75-1.645.75-1.645s-.444 2.39.76 2.39c.439 0 .882-.558 1.08-.842v.006l.032-.054.072-.112v-.011c.175-.3.57-.98 1.155-2.111.756-1.457 1.484-3.28 1.484-3.28s.066.445.29 1.185c.132.434.406.91.625 1.372-.175.24-.285.375-.285.375l.005.005c-.142.182-.295.38-.465.573-.597.697-1.309 1.495-1.407 1.726-.115.273-.088.471.131.632.159.118.444.134.734.118a3.43 3.43 0 001.1-.247c.29-.102.63-.257.948-.487.586-.424.942-1.03.91-1.827-.017-.44-.165-.88-.346-1.292.055-.075.104-.15.159-.225a24.408 24.408 0 001.643-2.775s.066.444.29 1.184c.11.375.334.782.531 1.179-.87.69-1.407 1.495-1.599 2.02-.345.975-.076 1.414.433 1.516.23.048.558-.059.8-.16a3.671 3.671 0 001.012-.51c.587-.423 1.15-1.012 1.118-1.81a3.362 3.362 0 00-.252-1.072c.74-.3 1.692-.466 2.908-.327 2.607.3 3.121 1.891 3.023 2.56-.099.67-.646 1.035-.827 1.147-.18.113-.241.15-.225.23.022.119.11.113.263.092.214-.037 1.37-.541 1.419-1.773.082-1.576-1.452-3.296-4.163-3.28zm-20.11 6.634c-.865.921-2.07 1.27-2.59.975-.559-.316-.34-1.677.722-2.652.647-.595 1.48-1.147 2.032-1.485.126-.075.312-.182.537-.316l.06-.032.132-.08c.388 1.393.016 2.62-.893 3.59zm6.298-4.19c-.301.718-.931 2.555-1.314 2.454-.33-.086-.532-1.48-.066-2.856.235-.691.734-1.517 1.024-1.838.47-.514.991-.686 1.117-.477.159.273-.575 2.267-.761 2.717zM17.2 17.52c-.126.064-.246.107-.301.075-.038-.021.055-.107.055-.107s.651-.686.909-.997c.148-.182.323-.396.509-.637v.07c0 .82-.81 1.371-1.172 1.596zm4.009-.895c-.093-.064-.077-.278.235-.948.12-.262.405-.702.893-1.125.055.171.093.337.088.493-.006 1.034-.762 1.42-1.216 1.58z" fill="#CD6799"/></g><defs><clipPath id="clip0"><path fill="#fff" d="M0 0h30v22H0z"/></clipPath></defs></svg>