<svg width="31" height="32" fill="none" xmlns="http://www.w3.org/2000/svg"><g clip-path="url(#clip0)"><path fill-rule="evenodd" clip-rule="evenodd" d="M29.938 8.013c.212-.697 0-1.21-1.015-1.21h-3.351c-.853 0-1.246.442-1.46.931 0 0-1.704 4.08-4.118 6.731-.781.769-1.136 1.012-1.563 1.012-.213 0-.533-.243-.533-.942V8.013c0-.838-.235-1.21-.945-1.21h-5.27c-.533 0-.853.387-.853.756 0 .793 1.208.977 1.332 3.209v4.849c0 1.063-.196 1.256-.622 1.256-1.136 0-3.9-4.1-5.54-8.79-.319-.913-.64-1.28-1.497-1.28H1.149C.192 6.802 0 7.244 0 7.733c0 .871 1.136 5.196 5.292 10.917 2.77 3.907 6.67 6.025 10.223 6.025 2.131 0 2.394-.47 2.394-1.28v-2.954c0-.94.202-1.128.877-1.128.498 0 1.35.245 3.339 2.128 2.272 2.233 2.646 3.234 3.926 3.234h3.35c.958 0 1.439-.47 1.163-1.4-.304-.924-1.39-2.265-2.828-3.857-.782-.907-1.953-1.884-2.31-2.373-.496-.626-.355-.906 0-1.464 0 0 4.086-5.65 4.51-7.57h.002z" fill="#9C9C9C"/></g><defs><clipPath id="clip0"><path fill="#fff" transform="translate(0 .419)" d="M0 0h30.64v30.64H0z"/></clipPath></defs></svg>