<svg width="32" height="32" fill="none" xmlns="http://www.w3.org/2000/svg"><rect x="1.5" y="1.5" width="29" height="29" rx="3.5" stroke="#000" stroke-width="3"/><path d="M14.196 21l-1.859-2.673L10.511 21H8.465l2.85-3.916L8.607 13.3h2.024l1.771 2.497L14.14 13.3h1.925l-2.684 3.718L16.253 21h-2.057zm8.576-8.162V21h-1.64v-.682c-.425.513-1.04.77-1.847.77a3.104 3.104 0 01-1.518-.374c-.448-.25-.8-.605-1.056-1.067-.257-.462-.385-.997-.385-1.606 0-.609.128-1.144.385-1.606a2.687 2.687 0 011.056-1.067c.454-.25.96-.374 1.518-.374.755 0 1.345.238 1.77.715v-2.871h1.717zm-3.19 6.842c.432 0 .792-.147 1.078-.44.286-.3.429-.7.429-1.199 0-.499-.143-.895-.43-1.188a1.425 1.425 0 00-1.077-.451c-.44 0-.803.15-1.09.451-.285.293-.428.69-.428 1.188 0 .499.143.898.429 1.199.286.293.649.44 1.089.44z" fill="#000"/></svg>