<svg width="100" height="101" fill="none" xmlns="http://www.w3.org/2000/svg"><g clip-path="url(#clip0)"><path d="M16.866 45.226c-4.064.006-7.347 5.411-7.338 13.718.013 8.302 3.308 13.707 7.372 13.7 4.056-.008 14.078-5.425 14.06-13.726-.009-8.306-10.032-13.698-14.093-13.692m66.758-1.466c4.067.003 7.347 5.414 7.334 13.715-.009 8.308-3.303 13.708-7.368 13.705-4.063-.007-14.078-5.426-14.063-13.728.013-8.306 10.031-13.698 14.094-13.692" fill="#E5AA5C"/><path d="M86.297 62.543c0 24.683-16.025 37.03-35.799 37.03-19.771 0-35.798-12.347-35.798-37.03 0-24.682 16.025-52.347 35.798-52.347 19.774 0 35.799 27.671 35.799 52.347z" fill="#FBBF67"/><path d="M73.984 77.596c0 15.632-10.512 23.455-23.484 23.455-12.969 0-23.484-7.823-23.484-23.455 0-15.63 10.51-33.156 23.484-33.156 12.972 0 23.484 17.533 23.484 33.156" fill="#FBBF67"/><path d="M97.11 29.53c-2.174-6.387-12.693-15.155-16.896-17.921.699-.807 1.414-1.848 2.377-3.348.419-.639 1.01-2.555-.202-2.44-9.219.89-18.254-.623-27.01-4.087-13.32-5.269-26.138 1.96-27.198 2.962-6.312 5.93-16.698 20.627-18.518 30.428-.443 2.367-.157 9.835 6.637 1.5.063 4.947-1.06 10.628-.716 15.594.191 2.677 3.462 0 6.207-14.313 2.325-12.122 16.212-6.043 22.197-6.936 5.859 2.81 6.88 1.269 14.875-1.434 15.018-5.074 20.054-.346 24.46 13.987-.054.015-.096.083-.096.25.003 2.814-.282 7.315 1.834 9.517 1.16 1.204 1.919-1.86 1.953-2.52.094-1.75-.364-3.487-.631-5.223 2.503-.475 5.77-2.237 5.205-2.784-6.411-6.127-3.536-5.793-4.753-11.553.882.615 10.91.215 10.275-1.666" fill="#E0CF35"/><path d="M44.65 52.583c0 7.064-3.777 12.777-8.442 12.777-4.67 0-8.452-5.713-8.452-12.777 0-7.054 3.781-12.776 8.452-12.776 4.665 0 8.442 5.722 8.442 12.776m28.586 0c0 7.064-3.78 12.777-8.444 12.777-4.666 0-8.45-5.713-8.45-12.777 0-7.054 3.784-12.776 8.45-12.776 4.664 0 8.444 5.722 8.444 12.776" fill="#fff"/><path d="M41.673 52.583c0 3.695-2.448 6.695-5.465 6.695-3.027 0-5.472-3-5.472-6.695 0-3.694 2.445-6.69 5.472-6.69 3.017.002 5.465 2.996 5.465 6.69zm23.116 6.695c3.019 0 5.465-2.998 5.465-6.695s-2.447-6.694-5.465-6.694c-3.019 0-5.466 2.997-5.466 6.694s2.447 6.695 5.466 6.695z" fill="#25333A"/><path d="M45.305 66.185c0-2.493 2.098-8.798 4.972-8.798 2.868 0 5.42 6.305 5.42 8.798 0 2.503-2.327 4.525-5.202 4.525-2.865.004-5.19-2.022-5.19-4.525z" fill="#E5AA5C"/><path d="M74.577 73.983c0 12.913-10.858 23.389-24.249 23.389-13.375 0-24.234-10.477-24.234-23.39" fill="#633F1A"/><path d="M70.422 76.334c0 5.157-9.18 9.344-20.5 9.344-11.313 0-20.484-4.187-20.484-9.344" fill="#fff"/></g><defs><clipPath id="clip0"><path fill="#fff" d="M0 0h100v101H0z"/></clipPath></defs></svg>